# xmcd CD database file
#
# Track frame offsets:
#	150
#	16351
#	31278
#	54003
#	77779
#	105304
#	123904
#	140554
#	164630
#	190655
#	211055
#	224255
#	240455
#	254255
#	272481
#	292732
#
# Disc length: 3970 seconds
#
# Revision: 0
# Processed by: cddbd v1.5.1PL2 Copyright (c) Steve Scherf et al.
# Submitted via: CDex 1.51
#
DISCID=d10f8010
DTITLE=Greg Oji - Greg Oji's Good Move
DYEAR=2005
DGENRE=Jazz
TTITLE0=little waltz
TTITLE1=raunchy rita
TTITLE2=good move
TTITLE3=take ten
TTITLE4=my shining hour
TTITLE5=equinox
TTITLE6=guaracha
TTITLE7=koja
TTITLE8=sweet lou
TTITLE9=inchworm
TTITLE10=everywhere calypso
TTITLE11=listen please listen
TTITLE12=favela
TTITLE13=yesterdays
TTITLE14=mournin'
TTITLE15=streetspace
EXTD=YEAR: 2005
EXTT0=
EXTT1=
EXTT2=
EXTT3=
EXTT4=
EXTT5=
EXTT6=
EXTT7=
EXTT8=
EXTT9=
EXTT10=
EXTT11=
EXTT12=
EXTT13=
EXTT14=
EXTT15=
PLAYORDER=
